<!--?xml version="1.0" encoding="UTF-8"?-->
<svg xmlns="http://www.w3.org/2000/svg" width="512" height="512" viewBox="0 0 512 512" fill="none">

  <g stroke="#6B7D4E" stroke-width="8" stroke-linecap="round" stroke-linejoin="round">

    <!-- Espátula reta -->
    <rect x="120" y="90" width="46" height="78" rx="10"></rect>

    <line x1="143" y1="168" x2="143" y2="390"></line>

    <line x1="143" y1="390" x2="143" y2="420"></line>

    <!-- Espátula vazada -->
    <path d="
      M250 90
      h52
      v72
      c0 10-8 18-18 18
      h-16
      c-10 0-18-8-18-18
      z"></path>

    <line x1="268" y1="110" x2="268" y2="160"></line>
    <line x1="284" y1="110" x2="284" y2="160"></line>

    <line x1="276" y1="180" x2="276" y2="390"></line>

    <line x1="276" y1="390" x2="276" y2="420"></line>

    <!-- Colher de silicone -->
    <ellipse cx="386" cy="132" rx="28" ry="42"></ellipse>

    <line x1="386" y1="174" x2="386" y2="390"></line>

    <line x1="386" y1="390" x2="386" y2="420"></line>

  </g>
</svg>