<?xml version="1.0" encoding="UTF-8" standalone="no"?>
<!-- Created with Inkscape (http://www.inkscape.org/) -->

<svg
   width="280.27899mm"
   height="190.76401mm"
   viewBox="0 0 280.27899 190.76401"
   version="1.1"
   id="svg1"
   xml:space="preserve"
   inkscape:version="1.4.2 (f4327f4, 2025-05-13)"
   sodipodi:docname="logo.svg"
   xmlns:inkscape="http://www.inkscape.org/namespaces/inkscape"
   xmlns:sodipodi="http://sodipodi.sourceforge.net/DTD/sodipodi-0.dtd"
   xmlns="http://www.w3.org/2000/svg"
   xmlns:svg="http://www.w3.org/2000/svg"><sodipodi:namedview
     id="namedview1"
     pagecolor="#ffffff"
     bordercolor="#000000"
     borderopacity="0.25"
     inkscape:showpageshadow="2"
     inkscape:pageopacity="0.0"
     inkscape:pagecheckerboard="0"
     inkscape:deskcolor="#d1d1d1"
     inkscape:document-units="mm"
     inkscape:zoom="0.44809905"
     inkscape:cx="576.88139"
     inkscape:cy="516.62685"
     inkscape:window-width="1366"
     inkscape:window-height="705"
     inkscape:window-x="-8"
     inkscape:window-y="-8"
     inkscape:window-maximized="1"
     inkscape:current-layer="layer1" /><defs
     id="defs1" /><g
     inkscape:label="Camada 1"
     inkscape:groupmode="layer"
     id="layer1"
     transform="translate(47.632723,-11.667502)"><path
       style="fill:#6c7e32;fill-opacity:1"
       d="m 74.320456,198.36677 c -0.843096,-0.15937 -0.926042,-0.25587 -0.926042,-1.07739 0,-1.10919 0.46328,-1.33056 0.8783,-0.41969 0.365243,0.80162 1.311652,1.22745 1.965971,0.88458 0.86573,-0.45365 0.519661,-1.20456 -1.039126,-2.25471 -1.930313,-1.30046 -2.193244,-1.72221 -1.663242,-2.66793 0.58068,-1.03615 1.519886,-1.41397 2.923514,-1.17607 1.115642,0.1891 1.171592,0.2421 1.250034,1.18425 0.04516,0.54246 0.0077,0.98629 -0.08323,0.98629 -0.09094,0 -0.465898,-0.35719 -0.833241,-0.79375 -0.704647,-0.83743 -1.363689,-1.00342 -1.890857,-0.47625 -0.555664,0.55566 -0.349851,0.90371 0.954055,1.61338 1.601383,0.87158 2.234174,1.56599 2.234174,2.4517 0,1.41272 -1.603587,2.15515 -3.770312,1.74559 z m 8.912772,-0.0471 c -1.066387,-0.3201 -1.420426,-0.68398 -1.908235,-1.96129 -1.063561,-2.78489 1.291587,-5.42931 4.135952,-4.64394 1.440235,0.39766 2.159019,1.33388 2.279907,2.96956 0.126196,1.7075 -0.550038,2.95616 -1.908316,3.52369 -1.009867,0.42194 -1.496801,0.44292 -2.599308,0.11198 z m 2.120608,-0.65789 c 1.819592,-1.27449 1.087183,-5.42314 -0.95741,-5.42314 -1.071198,0 -1.682099,0.83317 -1.797498,2.45149 -0.112993,1.58458 0.281105,2.53838 1.251742,3.0295 0.827407,0.41865 0.822605,0.41883 1.503166,-0.0579 z m 20.518214,0.53309 c -0.8278,-0.59791 -0.79299,-1.88449 0.0755,-2.79102 0.57829,-0.60359 0.63266,-0.8006 0.39414,-1.42795 -0.59058,-1.55335 1.06348,-2.93326 2.62304,-2.18829 0.94003,0.44904 1.01479,1.39886 0.1788,2.27145 l -0.67541,0.70498 0.60947,0.76435 c 0.35691,0.4476 0.73727,0.68538 0.91785,0.57377 0.46177,-0.28538 0.37158,-1.24367 -0.15464,-1.64313 -0.40931,-0.31071 -0.3377,-0.35245 0.61736,-0.35989 0.59421,-0.005 1.15228,0.0635 1.24015,0.15135 0.0879,0.0879 -0.18251,0.7097 -0.60086,1.38184 -0.83088,1.33493 -0.70813,1.89798 0.41378,1.89798 0.77802,0 1.01876,0.37348 0.51189,0.79415 -0.24568,0.2039 -0.71277,0.25855 -1.25386,0.14671 -1.09603,-0.22654 -1.63696,-0.22959 -3.11128,-0.0175 -0.88803,0.12772 -1.34194,0.062 -1.78595,-0.25875 z m 2.57505,-0.65609 c 0.32754,-0.20711 0.26483,-0.381 -0.38023,-1.05429 -0.76968,-0.80337 -1.43744,-1.04447 -1.50028,-0.54168 -0.0182,0.14552 -0.0555,0.41341 -0.0829,0.59531 -0.071,0.47134 0.65015,1.25751 1.14919,1.25272 0.23211,-0.002 0.59852,-0.11566 0.81424,-0.25206 z m 0.22165,-4.46215 c 0.0947,-0.64382 -0.61618,-1.07381 -1.05305,-0.63695 -0.18536,0.18536 -0.17405,0.45305 0.0357,0.84496 0.37055,0.69237 0.90084,0.58394 1.01735,-0.20801 z m 40.16353,5.23832 c -3.37803,-1.01143 -3.03088,-6.05837 0.46179,-6.7136 0.68858,-0.12917 1.28887,-0.0366 2.10601,0.32489 2.65923,1.17631 2.70159,4.84791 0.0706,6.12154 -1.21009,0.58579 -1.48224,0.61335 -2.63843,0.26717 z m 2.6916,-1.60697 c 0.2054,-0.38019 0.30089,-1.20504 0.23917,-2.0659 -0.11743,-1.63787 -0.77663,-2.40344 -2.06949,-2.40344 -2.1411,0 -2.47112,4.54844 -0.39428,5.43403 0.95688,0.40802 1.64397,0.11007 2.2246,-0.96469 z m -110.636758,1.02076 c 0.289066,-0.32742 1.046067,-1.82219 1.682224,-3.32171 0.636157,-1.49952 1.249829,-2.78399 1.363717,-2.85438 0.230809,-0.14265 1.565507,2.39725 2.056839,3.91412 0.174442,0.53854 0.603934,1.40175 0.954427,1.91823 l 0.637261,0.93906 h -1.319983 c -1.277684,0 -1.314637,-0.0213 -1.153106,-0.6649 0.09178,-0.36569 0.03773,-0.82051 -0.120117,-1.0107 -0.39896,-0.48072 -2.20397,-0.29788 -2.61551,0.26493 -0.399822,0.54679 -0.425263,0.8815 -0.067,0.8815 0.145521,0 0.264583,0.11906 0.264583,0.26458 0,0.14552 -0.497004,0.26459 -1.104454,0.26459 h -1.104454 z m 3.535416,-2.30265 c 0,-0.13868 -0.141147,-0.56192 -0.31366,-0.94054 l -0.31366,-0.68841 -0.338423,0.60981 c -0.510717,0.92028 -0.426704,1.27127 0.304284,1.27127 0.363802,0 0.661459,-0.11346 0.661459,-0.25213 z m 5.912118,2.41411 c 0.609079,-0.67302 0.643352,-5.27474 0.04101,-5.50588 -0.962199,-0.36923 -0.230653,-0.62477 1.785937,-0.62386 2.48111,10e-4 3.586311,0.47198 4.286635,1.82626 0.528569,1.02214 0.518701,1.96416 -0.03275,3.12625 -0.592887,1.24942 -1.671571,1.66109 -4.35254,1.66109 -2.081793,0 -2.149116,-0.0188 -1.72829,-0.48386 z m 4.162401,-0.81871 c 1.627537,-1.62754 0.649538,-4.48841 -1.541706,-4.50985 l -0.859896,-0.008 v 2.64584 2.64583 h 0.814102 c 0.54702,0 1.067831,-0.25373 1.5875,-0.7734 z m 5.006731,1.03798 c 0,-0.14552 0.119063,-0.26458 0.264584,-0.26458 0.15959,0 0.264583,-1.10243 0.264583,-2.77813 0,-1.67569 -0.104993,-2.77812 -0.264583,-2.77812 -0.145521,0 -0.264584,-0.11906 -0.264584,-0.26458 0,-0.3282 2.294955,-0.35369 2.496407,-0.0277 0.08051,0.13027 -0.03152,0.30513 -0.248968,0.38857 -0.627111,0.24065 -0.568153,5.13819 0.06767,5.62084 0.403951,0.30665 0.285812,0.35256 -0.926042,0.3599 -0.763985,0.005 -1.389063,-0.11065 -1.389063,-0.25617 z m 5.669643,-0.15119 c 0.589607,-0.5896 0.607041,-5.34827 0.02042,-5.57338 -0.217446,-0.0834 -0.329481,-0.2583 -0.248969,-0.38857 0.201453,-0.32596 2.496408,-0.30047 2.496408,0.0277 0,0.14552 -0.119063,0.26458 -0.264584,0.26458 -0.15959,0 -0.264583,1.10243 -0.264583,2.77812 v 2.77813 h 1.070967 c 0.800634,0 1.224698,-0.16588 1.679998,-0.65716 0.739061,-0.79746 1.004022,-0.62592 0.641131,0.41507 l -0.268862,0.77126 h -2.638849 c -2.398954,0 -2.601052,-0.0378 -2.223076,-0.41578 z m 25.881921,0.0475 c 0.381506,-0.2896 0.463021,-0.77681 0.463021,-2.76747 0,-2.12944 -0.06276,-2.45518 -0.529167,-2.74645 -0.772352,-0.48234 -0.649497,-0.73235 0.35988,-0.73235 0.764023,0 1.108193,0.2478 2.447396,1.76213 0.857092,0.96917 1.703391,1.95144 1.880664,2.18281 0.262592,0.34274 0.323874,0.0653 0.330729,-1.49754 0.0067,-1.53245 -0.0714,-1.91823 -0.38846,-1.91823 -0.218282,0 -0.396875,-0.11906 -0.396875,-0.26458 0,-0.14553 0.47625,-0.26459 1.058333,-0.26459 0.582083,0 1.058333,0.11906 1.058333,0.26459 0,0.14552 -0.119062,0.26458 -0.264583,0.26458 -0.161051,0 -0.264583,1.19062 -0.264583,3.04271 0,2.50221 -0.06917,3.04271 -0.389382,3.04271 -0.21416,0 -1.285723,-1.08296 -2.38125,-2.40657 l -1.991868,-2.40656 v 2.14198 c 0,1.72759 0.07678,2.14198 0.396875,2.14198 0.218281,0 0.396875,0.11906 0.396875,0.26458 0,0.14552 -0.506016,0.2608 -1.12448,0.25617 -0.991749,-0.007 -1.069826,-0.0499 -0.661458,-0.3599 z m 28.839628,0 c 0.38742,-0.29409 0.46303,-0.78952 0.46303,-3.03429 0,-1.61215 -0.10559,-2.68281 -0.26459,-2.68281 -0.14552,0 -0.26458,-0.11906 -0.26458,-0.26458 0,-0.40757 3.85395,-0.31966 4.88572,0.11144 2.19438,0.91688 2.27199,4.73989 0.11882,5.85334 -1.0254,0.53025 -5.63544,0.54603 -4.9384,0.0169 z m 4.52867,-0.9339 c 0.38046,-0.38046 0.5308,-0.89993 0.54498,-1.88312 0.0169,-1.17208 -0.0819,-1.44508 -0.72277,-1.99661 -0.47421,-0.40811 -1.07154,-0.63889 -1.65365,-0.63889 h -0.91129 v 2.46945 c 0,1.35819 0.0893,2.55928 0.19844,2.66909 0.33585,0.3379 1.98934,-0.065 2.54429,-0.61992 z m 4.99633,0.9339 c 0.38743,-0.29409 0.46303,-0.78952 0.46303,-3.03429 0,-1.61215 -0.10559,-2.68281 -0.26459,-2.68281 -0.14552,0 -0.26458,-0.12353 -0.26458,-0.27451 0,-0.17533 0.88429,-0.24703 2.44739,-0.19844 l 2.4474,0.0761 0.0837,0.72761 c 0.0882,0.76692 -0.38888,1.00987 -0.6495,0.33073 -0.10339,-0.26944 -0.52551,-0.39688 -1.31461,-0.39688 h -1.16232 v 1.05834 c 0,1.03492 0.0207,1.05833 0.93435,1.05833 0.58486,0 0.99109,-0.14788 1.08606,-0.39536 0.24834,-0.64716 0.62543,-0.1695 0.62543,0.79223 0,0.96174 -0.37709,1.4394 -0.62543,0.79223 -0.095,-0.24747 -0.5012,-0.39535 -1.08606,-0.39535 -0.93099,0 -0.93435,0.004 -0.93435,1.19062 v 1.19063 h 1.07097 c 0.81935,0 1.22402,-0.16515 1.72242,-0.70293 0.77605,-0.83737 0.97306,-0.73294 0.74725,0.39609 l -0.1672,0.83601 -2.8112,-0.008 c -2.39457,-0.007 -2.74258,-0.0605 -2.34818,-0.3599 z m 8.46667,0 c 0.65422,-0.49662 0.70036,-5.7171 0.0505,-5.7171 -0.22687,0 -0.3389,-0.11906 -0.24897,-0.26458 0.21064,-0.34082 3.59209,-0.3444 4.48544,-0.005 0.85861,0.32644 1.28132,1.35208 0.93388,2.26592 -0.19077,0.50176 -0.15226,0.8322 0.15091,1.2949 0.50291,0.76754 0.27565,1.85997 -0.49995,2.40322 -0.7724,0.54101 -5.58416,0.56312 -4.87184,0.0224 z m 3.65542,-0.43474 c 1.09513,-0.5861 0.30494,-2.10736 -1.09463,-2.10736 -0.74195,0 -0.77485,0.0505 -0.77485,1.19062 0,1.10175 0.0507,1.19063 0.67885,1.19063 0.37337,0 0.90915,-0.12325 1.19063,-0.27389 z m 0.0869,-3.49642 c 0.42237,-0.67457 -0.10906,-1.37107 -1.12313,-1.47198 -0.81335,-0.0809 -0.83321,-0.0569 -0.83321,1.00896 0,1.06583 0.0199,1.08988 0.83321,1.00895 0.45827,-0.0456 0.96368,-0.29127 1.12313,-0.54593 z m 14.77856,3.93116 c 0.63703,-0.48358 0.69465,-5.38024 0.0661,-5.62142 -0.21828,-0.0838 -0.39687,-0.25862 -0.39687,-0.38857 0,-0.32007 3.49914,-0.30113 4.35314,0.0236 1.29288,0.49155 1.39334,2.18879 0.1824,3.08152 -0.36004,0.26543 -0.35003,0.38316 0.09,1.05834 0.27232,0.41782 0.84384,1.0871 1.27006,1.48728 l 0.77493,0.72761 h -1.05414 c -0.96964,0 -1.14685,-0.12046 -2.21079,-1.50281 l -1.15665,-1.50281 -0.0826,1.13089 c -0.062,0.84857 0.0371,1.22165 0.39687,1.4944 0.42361,0.32116 0.29455,0.3635 -1.10804,0.3635 -1.37597,0 -1.52581,-0.0468 -1.12448,-0.35149 z m 3.47769,-3.93116 c 0.39965,-0.63828 -0.0893,-1.36511 -0.99084,-1.47279 -0.65861,-0.0787 -0.70092,-0.0177 -0.70092,1.00977 0,1.02747 0.0423,1.08842 0.70092,1.00976 0.38551,-0.0461 0.83138,-0.29208 0.99084,-0.54674 z m 4.92283,4.03489 c 0,-0.14552 0.10552,-0.26458 0.23448,-0.26458 0.12897,0 0.86586,-1.42683 1.63752,-3.17074 1.29808,-2.93356 1.43665,-3.14032 1.85235,-2.76412 0.24711,0.22364 0.82994,1.41512 1.29515,2.64773 0.46522,1.23261 1.14408,2.59553 1.50857,3.0287 l 0.66272,0.7876 h -1.51113 c -1.32622,0 -1.47003,-0.0495 -1.17524,-0.40471 0.24987,-0.30108 0.26352,-0.56352 0.0533,-1.02491 -0.23125,-0.50755 -0.46698,-0.61226 -1.29782,-0.5765 -0.55838,0.024 -1.1631,0.13509 -1.34382,0.24677 -0.41784,0.25824 -0.42376,1.02916 -0.0111,1.44185 0.24694,0.24694 0.0706,0.3175 -0.79375,0.3175 -0.61119,0 -1.11125,-0.11907 -1.11125,-0.26459 z m 3.96875,-2.47406 c 0,-0.33953 -0.61464,-1.75927 -0.76163,-1.75927 -0.0994,0 -0.31335,0.35144 -0.47548,0.78097 -0.21921,0.58075 -0.21712,0.81281 0.008,0.90515 0.36779,0.15078 1.22897,0.20204 1.22897,0.0731 z M 25.201128,192.85069 c -4.087763,-4.67063 -4.392786,-5.0639 -7.451928,-9.60793 -4.634302,-6.88374 -5.182378,-7.80149 -8.2420517,-13.80121 -8.0675173,-15.81962 -12.0226098,-35.5496 -10.864329,-54.1967 0.60607412,-9.75716 2.22149043,-18.159421 5.325922,-27.70168 L 5.0318393,84.275468 4.3801909,82.892963 C 3.3193614,80.642359 3.0464661,79.286695 3.0633094,76.351082 3.0771154,73.944805 3.1755067,73.344564 3.7984021,71.866603 5.059927,68.873348 6.8859868,66.553678 12.208024,61.183741 c 1.709052,-1.724433 3.369799,-3.503884 3.690548,-3.954335 0.544878,-0.765209 0.54932,-0.804906 0.06763,-0.604392 -0.28355,0.118034 -2.936811,1.035053 -5.896134,2.03782 -2.9593225,1.002766 -5.7572914,2.015876 -6.2177092,2.251356 -1.6672942,0.852735 -6.2256943,4.603928 -10.1636829,8.363888 -1.3607864,1.299266 -1.6536451,1.730123 -1.6536451,2.432855 0,1.342833 -1.0130164,2.026205 -2.4433658,1.648275 -0.721137,-0.190541 -1.203555,-1.146364 -1.027201,-2.035209 0.149705,-0.754529 0.905581,-1.322917 1.7592927,-1.322917 0.6958977,0 1.0571574,-0.240972 1.9661518,-1.311488 0.6124857,-0.721318 2.5321045,-2.521142 4.2658216,-3.99961 1.7337171,-1.478468 3.15221359,-2.749106 3.15221359,-2.823641 0,-0.169218 -2.19202419,0.110971 -4.63020669,0.591842 -1.0186454,0.200903 -3.1603282,0.619138 -4.7592943,0.929412 -4.0732477,0.790398 -6.5102457,2.185858 -8.6657177,4.962114 -1.093623,1.408591 -3.103116,0.226817 -2.365836,-1.391338 0.24621,-0.540371 0.489594,-0.661458 1.329533,-0.661458 0.772823,0 1.250601,-0.199865 1.923902,-0.80481 0.492662,-0.442646 1.252937,-1.008193 1.689499,-1.256771 0.774282,-0.440876 0.663963,-0.455887 -4.497917,-0.612061 -4.473018,-0.135332 -5.700991,-0.265228 -7.9375,-0.839634 -1.455208,-0.373744 -4.312709,-0.992838 -6.35,-1.375766 -2.037292,-0.382927 -3.912527,-0.757256 -4.167188,-0.831841 -0.895268,-0.262206 -0.444431,-1.057713 1.443646,-2.547326 4.961831,-3.914678 10.098161,-5.107589 14.101111,-3.274978 1.374398,0.629221 5.489235,3.471736 6.878681,4.75177 0.738167,0.68004 2.354396,1.481011 3.936468,1.950836 1.556652,0.462276 2.8864167,0.35987 7.8374877,-0.603569 7.7043389,-1.499202 8.0696237,-1.644162 5.29166533,-2.099946 -2.89447953,-0.474902 -5.44368033,-1.773781 -9.95469963,-5.072158 -3.4625464,-2.531752 -7.0075254,-4.541878 -9.7879004,-5.550079 -3.408374,-1.235921 -3.61165,-1.577722 -1.87395,-3.150963 3.35496,-3.037441 9.420776,-3.093651 13.4007655,-0.12418 1.5872231,1.184228 4.3287193,4.04822 7.72795396,8.07325 3.44124264,4.074772 5.86140404,5.216152 9.08678914,4.285452 3.1562064,-0.910739 7.8844854,-2.938191 10.8362374,-4.646502 1.805968,-1.045194 1.964223,-0.891215 -2.104982,-2.048117 -1.691197,-0.480818 -3.091705,-0.72138 -3.881588,-0.666731 -1.083899,0.07499 -1.29069,0.0017 -1.682814,-0.596804 -0.847266,-1.293092 0.165224,-2.788604 1.637728,-2.419029 0.406944,0.102137 0.791197,0.491964 1.016541,1.031289 0.319916,0.765666 0.618259,0.953757 2.550767,1.608129 5.083541,1.721355 7.264816,1.160012 10.789354,-2.776602 l 1.680857,-1.877376 -1.292923,0.182115 c -0.711107,0.100162 -1.411984,0.325635 -1.557505,0.50105 -0.852019,1.027047 -2.513542,0.460106 -2.513542,-0.857665 0,-0.404104 0.142875,-0.877609 0.3175,-1.052234 0.456167,-0.456167 1.673333,-0.391048 2.090705,0.111853 0.294118,0.354391 0.679352,0.399331 2.206467,0.257401 2.109565,-0.196063 2.178721,-0.236285 5.04262,-2.932825 l 2.116667,-1.992974 -1.5875,0.201293 c -2.867779,0.363632 -8.824159,0.202789 -11.208395,-0.302667 -2.420258,-0.513092 -10.209448,-3.401176 -10.949525,-4.059877 -0.576573,-0.513174 -0.170618,-1.124704 0.746618,-1.124704 0.869532,0 1.861661,-0.48284 3.618479,-1.761007 2.08222,-1.514912 3.691466,-2.011538 6.084032,-1.877579 2.282743,0.12781 3.897481,0.569572 8.064612,2.206323 4.558042,1.790292 6.246414,2.226013 8.625554,2.226013 2.507282,0 2.758517,-0.106221 7.850921,-3.319335 8.170553,-5.15531 16.44818,-9.11422 25.135418,-12.021423 7.252457,-2.427051 14.134777,-3.941858 22.489584,-4.949983 4.748317,-0.572952 18.219947,-0.639716 23.283387,-0.115391 16.01936,1.658828 30.16332,6.219432 44.60586,14.382795 8.2067,4.638677 17.50247,11.962436 24.98146,19.681877 7.84126,8.093354 13.92739,16.682572 18.8111,26.547677 5.50932,11.128864 9.02796,22.97637 10.45418,35.200049 0.88295,7.56747 0.52323,22.77984 -0.68508,28.97187 -0.14199,0.72761 -0.50408,2.63261 -0.80466,4.23334 -3.10886,16.55619 -11.00007,33.4668 -21.79173,46.69896 -3.25298,3.98862 -4.10577,4.7625 -5.24817,4.7625 -0.55117,0 -1.00213,-0.12923 -1.00213,-0.28718 0,-0.15795 1.21892,-1.65052 2.70872,-3.31681 3.64165,-4.0731 8.76446,-11.27823 11.64587,-16.37969 3.16655,-5.60631 5.1762,-9.99343 7.49654,-16.36522 4.49181,-12.33474 6.25267,-22.62449 6.23622,-36.44197 -0.01,-8.2482 -0.4153,-12.80501 -1.78662,-20.07789 -0.66733,-3.539233 -0.8385,-4.248646 -2.1387,-8.863549 -1.98099,-7.031305 -6.41747,-17.245988 -10.56276,-24.320007 -1.09484,-1.868357 -5.8819,-8.737369 -7.3907,-10.604994 -0.58781,-0.727604 -1.26075,-1.600234 -1.49543,-1.939176 -1.35075,-1.950902 -9.78496,-10.711612 -12.25376,-12.728134 -0.87313,-0.713168 -1.82563,-1.518989 -2.11667,-1.790714 -0.91655,-0.855717 -6.74717,-5.351877 -7.35579,-5.672266 -0.31994,-0.168422 -0.64124,-0.378625 -0.714,-0.467119 -0.27594,-0.335603 -5.5293,-3.723833 -7.95898,-5.133255 -3.25473,-1.888024 -9.77523,-5.147018 -12.82023,-6.407647 -12.79123,-5.295562 -27.69363,-8.331115 -40.86871,-8.324772 -17.754516,0.0085 -33.302364,3.613884 -49.08026,11.381041 -3.890682,1.915309 -10.134868,5.467364 -11.848954,6.740374 l -0.712514,0.529167 0.431729,1.322917 c 0.684426,2.097238 0.607614,6.132268 -0.16621,8.73125 -0.587717,1.973918 -2.887426,6.773404 -4.015119,8.379543 -1.973238,2.810423 -3.024459,6.812513 -2.701677,10.285521 0.162425,1.747622 0.143068,1.840145 -0.384984,1.840145 -0.715265,0 -1.731132,-1.701408 -2.284347,-3.825901 -0.310269,-1.191519 -0.409784,-2.969873 -0.407157,-7.276042 0.0039,-6.318214 0.397741,-9.121554 1.689399,-12.023624 0.382375,-0.859114 0.651261,-1.605992 0.597523,-1.65973 -0.05374,-0.05374 -1.037546,0.809809 -2.18624,1.918994 -1.148693,1.109184 -2.837047,2.624541 -3.751897,3.367458 -1.525936,1.239159 -1.802993,1.635935 -3.353382,4.802406 -2.048175,4.183135 -2.462261,5.535438 -1.874862,6.122837 0.639168,0.639168 0.801393,1.707594 0.375011,2.469851 -0.652888,1.167189 -2.694694,1.059115 -3.160981,-0.167312 -0.369907,-0.97293 -0.06965,-2.069687 0.657287,-2.400902 0.44253,-0.20163 0.660266,-0.586412 0.789634,-1.395437 0.09824,-0.614373 0.52755,-2.015642 0.954017,-3.113931 l 0.775394,-1.996889 -1.596414,1.56984 c -0.878028,0.863412 -2.032679,2.165152 -2.56589,2.892757 -0.533211,0.727604 -1.242559,1.620573 -1.576329,1.984375 -0.844497,0.920484 -6.62173,9.261068 -7.972143,11.509375 -2.26498,3.77097 -4.72579,8.980484 -5.186705,10.980209 C 9.9087113,79.559155 9.6269203,81.998622 9.5340653,83.888787 9.3830206,86.963499 9.3130436,87.335428 8.8696439,87.42019 8.5970669,87.4723 8.0198782,87.253081 7.5870038,86.933042 7.101178,86.573856 6.7056813,86.445432 6.5536245,86.597489 6.1285817,87.022532 4.5131967,91.823124 3.6659577,95.179041 1.1169603,105.27564 0.12967706,115.00252 0.54162873,125.96047 c 0.3667359,9.75521 1.45946697,16.79058 3.96566537,25.53229 4.1430178,14.451 13.4390049,30.9914 23.1621009,41.21246 0.867076,0.91148 1.518591,1.71515 1.447809,1.78593 -0.07078,0.0708 -0.632469,0.1287 -1.248194,0.1287 -1.050284,0 -1.215231,-0.10938 -2.667882,-1.76916 z M 8.1588692,83.362541 8.1512272,82.304207 7.6174723,83.315812 C 7.18912,84.12765 7.1476307,84.404428 7.4073732,84.717398 c 0.4555584,0.548915 0.761263,-0.0022 0.751496,-1.354857 z m -1.846891,-2.291199 c 0.2978042,-0.665167 0.4399239,-1.42605 0.3592349,-1.923278 -0.3258595,-2.008037 1.3993221,-6.823542 3.6272149,-10.124651 0.432632,-0.641039 0.786604,-1.222667 0.786604,-1.292506 0,-0.06984 0.671484,-1.224729 1.492185,-2.566423 3.137656,-5.12948 3.078486,-5.172122 -1.164883,-0.839502 -3.7845093,3.864113 -5.870889,6.634818 -6.6171918,8.787609 -0.5252207,1.515056 -0.6626479,3.859102 -0.322779,5.505528 0.3240683,1.569883 1.0109269,3.553797 1.2303741,3.553797 0.064075,0 0.3382329,-0.495258 0.6092409,-1.100574 z M 13.209021,67.090665 c 3.282915,-5.288091 4.226015,-7.259127 4.226015,-8.832172 0,-0.539444 -0.0042,-0.539732 -0.349775,-0.0241 -0.192376,0.287041 -0.513612,0.938612 -0.713857,1.447934 -0.200246,0.509323 -1.573968,3.009636 -3.052716,5.556251 -4.0243074,6.930429 -5.0767798,8.968549 -5.5280356,10.705068 -0.2253832,0.867318 -0.4039707,1.700756 -0.396861,1.852083 0.00711,0.151328 1.0043038,-1.68939 2.2159869,-4.090484 1.2116837,-2.401094 2.8313427,-5.377657 3.5992427,-6.614584 z M -19.47434,61.921734 c -0.436562,-0.199898 -0.930343,-0.368822 -1.097289,-0.375385 -0.166947,-0.0066 -1.738899,-0.491841 -3.493228,-1.078394 -1.754329,-0.586552 -4.140516,-1.205044 -5.302638,-1.374425 -1.173539,-0.171045 -2.044906,-0.418062 -1.959904,-0.555598 0.265278,-0.429228 3.785759,0.06374 6.153387,0.86166 2.176113,0.733372 6.309128,1.93424 7.686245,2.233277 1.559897,0.338727 1.17553,-0.303101 -1.418419,-2.368526 -3.358614,-2.674286 -4.652225,-3.418526 -6.641772,-3.821142 -1.970274,-0.398716 -3.906193,-0.181871 -6.035302,0.676021 -1.724597,0.694899 -5.03024,2.965493 -4.817782,3.309257 0.06767,0.10949 0.927297,0.337261 1.910285,0.506157 0.982987,0.168895 3.216,0.651135 4.96225,1.071644 4.674743,1.125711 5.567832,1.261886 8.334376,1.270804 2.33715,0.0075 2.457839,-0.0174 1.719791,-0.35535 z m 59.631619,-6.472736 c 0.302634,-0.800365 1.300333,-2.705365 2.217108,-4.233334 2.6796,-4.466029 3.950944,-7.650576 4.295421,-10.759463 0.180152,-1.625859 -0.230662,-4.58637 -0.636426,-4.58637 -0.112047,0 -0.354929,0.684609 -0.539739,1.521354 -0.663796,3.005404 -2.186104,7.684068 -3.895488,11.972396 -0.957107,2.401094 -1.844258,4.478735 -1.971448,4.616979 -0.490183,0.532792 -0.203995,-1.253438 0.45443,-2.836299 2.704775,-6.502308 2.912675,-7.101313 4.169165,-12.012293 0.736923,-2.880256 0.815948,-3.437505 0.455565,-3.212442 -0.772705,0.482562 -2.624304,3.192858 -3.852305,5.638846 -1.604399,3.195718 -1.987275,5.538778 -1.987275,12.161395 0,4.955036 0.222029,6.6459 0.568811,4.331786 0.09456,-0.631041 0.419546,-1.80219 0.722181,-2.602555 z m -19.651877,0.79375 c 0.722862,-0.945885 1.594561,-2.118755 1.937111,-2.606377 l 0.622816,-0.886586 -1.1615,0.720839 c -1.815309,1.126599 -2.331924,1.714796 -2.75378,3.13534 -0.684297,2.304276 -0.682904,2.303903 1.355353,-0.363216 z M 0.74161813,55.25056 C -0.48878181,53.977253 -2.5641565,51.755901 -3.8703236,50.314223 -8.3935522,45.321726 -10.479377,44.069401 -14.313194,44.044348 c -2.186951,-0.01429 -4.278419,0.639664 -5.159516,1.613265 -0.507392,0.560663 -0.509141,0.559277 1.805926,1.430666 2.864194,1.07808 5.67324,2.663849 8.5111944,4.80476 4.7191393,3.560052 6.8095671,4.73452 9.39270396,5.277114 L 1.163156,57.36467 -0.13976991,56.208397 C -5.5019297,51.44978 -8.8094529,49.183439 -11.801423,48.217742 c -1.164167,-0.37575 -2.533385,-0.718137 -3.042708,-0.760859 -0.509323,-0.04272 -0.926042,-0.196739 -0.926042,-0.34226 0,-0.8489 3.502661,-0.08803 6.6155114,1.437059 2.4798955,1.214985 4.6443943,2.806181 7.9365677,5.834438 2.07041733,1.904441 3.702752,3.17526 4.0827766,3.178556 0.062715,5.44e-4 -0.8926644,-1.040808 -2.12306457,-2.314116 z M 37.014204,37.468967 c 1.091406,-0.316305 2.083957,-0.672918 2.205669,-0.792474 0.121712,-0.119557 -1.128444,-0.220227 -2.778125,-0.223711 -1.686823,-0.0036 -4.446746,-0.237785 -6.306711,-0.535221 -4.077939,-0.652123 -6.263476,-0.874553 -8.593106,-0.874553 -1.151121,0 -1.706828,-0.09158 -1.543969,-0.254436 0.527756,-0.527756 4.684319,-0.34473 9.622259,0.423696 1.374555,0.213904 3.86841,0.452342 5.5419,0.529862 l 3.042708,0.140945 -1.968233,-0.55104 C 35.154068,35.028962 33.606255,34.533758 32.797012,34.231582 31.98777,33.929406 29.778094,33.15084 27.886622,32.501436 24.840081,31.45546 24.23614,31.331537 22.594955,31.415645 c -1.25492,0.06431 -2.216679,0.285267 -2.981029,0.684862 -1.527116,0.798364 -3.768487,2.493546 -3.618291,2.736569 0.172098,0.27846 6.233576,2.229007 8.45086,2.719435 1.018646,0.225309 2.090209,0.467009 2.38125,0.537112 0.291042,0.0701 2.255573,0.08763 4.365626,0.03895 2.954418,-0.06816 4.292686,-0.22073 5.820833,-0.663608 z M 131.20592,191.22977 c 0,-0.46721 1.56918,-1.70065 1.96858,-1.54739 0.63859,0.24505 0.49428,0.61054 -0.47845,1.21172 -0.93069,0.5752 -1.49013,0.70122 -1.49013,0.33567 z M 46.906852,154.29013 c -0.0797,-0.2077 -0.10573,-0.65418 -0.05784,-0.99219 0.0698,-0.49268 0.270707,-0.62831 1.013111,-0.68395 4.381603,-0.32837 7.797969,-1.78693 10.566609,-4.51122 1.874211,-1.8442 3.841071,-4.64564 4.917795,-7.00452 0.72713,-1.593 3.706647,-9.66164 8.716442,-23.60445 3.751594,-10.44109 5.912597,-16.37785 6.741664,-18.520842 0.769335,-1.988591 3.280662,-8.840951 4.608166,-12.573756 0.645715,-1.815685 2.033646,-5.622963 3.084291,-8.46062 1.971558,-5.324923 2.389282,-6.940451 1.876521,-7.257355 -0.538839,-0.33302 -0.306325,-0.592995 0.82966,-0.927647 2.449244,-0.721527 3.879775,-2.072442 4.290781,-4.051977 0.09759,-0.470045 0.320557,-0.727605 0.629865,-0.727605 0.528129,0 0.235624,-0.692998 5.695516,13.493751 3.039657,7.898052 7.774387,20.102972 9.289057,23.944801 0.34424,0.87313 1.28025,3.31391 2.08002,5.42396 0.79977,2.11005 2.42839,6.27724 3.61915,9.26042 1.19077,2.98318 3.87897,9.82927 5.97378,15.21354 5.19367,13.3492 6.14139,15.2303 9.15972,18.18081 1.74315,1.70398 4.32427,2.39699 7.57362,2.03345 8.67547,-0.9706 16.63143,-6.16868 21.29932,-13.91605 2.41312,-4.00509 4.4042,-9.47127 5.32998,-14.63258 0.6873,-3.83181 0.83804,-12.71132 0.29194,-17.19792 -0.44564,-3.6613 -1.76659,-9.232054 -2.89619,-12.213856 -3.48204,-9.191523 -9.06205,-15.996196 -15.85912,-19.339754 -6.2532,-3.076018 -12.0929,-4.164437 -22.34614,-4.164934 l -4.56406,-2.21e-4 v 23.135428 c 0,14.323497 -0.0957,23.194597 -0.25131,23.290757 -0.34774,0.21491 -0.5786,-0.27996 -2.23077,-4.78194 -0.79548,-2.16761 -2.31824,-6.14376 -3.3839,-8.8359 l -1.93757,-4.894802 -0.13312,-12.92041 -0.13313,-12.92041 -0.84579,-0.755447 c -1.18952,-1.062458 -2.37506,-1.314111 -6.19877,-1.3158 l -3.34038,-0.0015 -0.1672,-0.83601 c -0.092,-0.459805 -0.0967,-0.906289 -0.0105,-0.992187 0.0862,-0.0859 7.79638,-0.148041 17.13366,-0.138096 15.95102,0.01699 17.19268,0.052 20.54873,0.579387 8.81818,1.385738 14.92241,4.094902 21.43125,9.511564 4.27038,3.553815 6.81142,6.82669 9.71863,12.517647 3.36029,6.577872 4.80915,12.443584 5.03149,20.369944 0.16046,5.72039 -0.15704,9.08813 -1.27827,13.55841 -1.79112,7.14117 -4.81261,12.46556 -10.02282,17.66198 -5.61532,5.60046 -11.62287,8.81744 -19.8532,10.6312 -2.71896,0.59918 -3.09085,0.61222 -17.4625,0.61222 h -14.68438 l -0.083,-0.86171 c -0.0925,-0.95997 -0.15574,-0.92141 2.30835,-1.40755 1.39085,-0.27439 1.89836,-0.52889 2.8196,-1.41393 1.47379,-1.41588 1.71378,-2.77733 1.05309,-5.9741 -0.81865,-3.96112 -1.58957,-6.09814 -8.10952,-22.47995 -0.43228,-1.0861 -0.93043,-2.06654 -1.10701,-2.17876 -0.37075,-0.2356 -33.630822,-0.2833 -34.502736,-0.0495 -0.375577,0.10071 -0.719774,0.54177 -0.977963,1.25316 -0.219126,0.60375 -0.924191,2.52649 -1.56681,4.27274 -2.822408,7.6696 -5.489237,15.23979 -5.878458,16.6869 -0.232157,0.86314 -0.489313,2.70044 -0.571458,4.08289 -0.235809,3.96848 0.589169,5.19056 3.951844,5.85408 l 1.521354,0.30018 v 1.02391 1.02391 H 58.304859 c -9.503834,0 -11.275622,-0.0587 -11.398007,-0.37763 z m 60.223268,-35.67185 c 7.1e-4,-0.1819 -0.52921,-1.69994 -1.1776,-3.37343 -0.64839,-1.67349 -1.78728,-4.65006 -2.53087,-6.61459 -0.74359,-1.96453 -1.93391,-5.00062 -2.64515,-6.74688 -1.282367,-3.148503 -3.551996,-8.944477 -6.99351,-17.859381 -2.622323,-6.792867 -3.963247,-10.041352 -4.147723,-10.048149 -0.167157,-0.0062 -0.399963,0.593357 -3.696452,9.518982 -1.048028,2.837657 -2.853682,7.719219 -4.012565,10.847917 -1.860886,5.023936 -2.852494,7.782371 -5.373905,14.948971 -0.358388,1.01865 -1.287969,3.51896 -2.065736,5.55625 -0.777766,2.03729 -1.364426,3.79346 -1.303689,3.9026 0.06074,0.10915 7.723406,0.19844 17.028151,0.19844 13.357119,0 16.918029,-0.0696 16.919049,-0.33073 z"
       id="path1" /></g></svg>
