<!--?xml version="1.0" encoding="UTF-8"?-->
<svg xmlns="http://www.w3.org/2000/svg" viewBox="0 0 512 512" width="512" height="512" fill="none">

  <g stroke="#6B7D4E" stroke-width="2.2" stroke-linecap="round" stroke-linejoin="round">

    <!-- Train body -->
    <rect x="166" y="122" width="180" height="220" rx="28"></rect>

    <!-- Roof -->
    <path d="M196 122
             Q256 96 316 122"></path>

    <!-- Windows -->
    <rect x="196" y="162" width="44" height="44" rx="8"></rect>

    <rect x="272" y="162" width="44" height="44" rx="8"></rect>

    <!-- Door -->
    <rect x="228" y="226" width="56" height="88" rx="10"></rect>

    <!-- Headlights -->
    <circle cx="206" cy="286" r="6"></circle>
    <circle cx="306" cy="286" r="6"></circle>

    <!-- Wheels -->
    <circle cx="206" cy="362" r="12"></circle>
    <circle cx="306" cy="362" r="12"></circle>

    <!-- Rails -->
    <path d="M154 390 H358"></path>
    <path d="M174 414 H338"></path>

    <!-- Sleepers -->
    <path d="M184 390 L176 414"></path>
    <path d="M220 390 L212 414"></path>
    <path d="M256 390 L248 414"></path>
    <path d="M292 390 L284 414"></path>
    <path d="M328 390 L320 414"></path>

  </g>

</svg>